
****** Scarface.1983.Collectors.Edition.Uncut.Version.x264.mkv.Zen_Bud******


Format                           : Matroska
File size                        : 1.87 GiB
Duration                         : 2h 42mn
Overall bit rate                 : 1 646 Kbps
Writing application              : HandBrake 0.9.4

Video

Format                           : AVC
Duration                         : 2h 42mn
Bit rate                         : 1 486 Kbps
Width                            : 714 pixels
Height                           : 432 pixels
Display aspect ratio             : 2.35:1
Stream size                      : 1.69 GiB (90%)
Writing library                  : x264 core 79


Audio

Format                           : MPEG Audio
Codec ID/Hint                    : MP3
Duration                         : 2h 42mn
Bit rate                         : 128 Kbps
Channel(s)                       : 2 channels
Sampling rate                    : 48.0 KHz
Stream size                      : 149 MiB (8%)
Writing library                  : LAME3.98
Language                         : English

Text #1
Language                         : English

Text #2
Language                         : German

Text #3
Language                         : Danish

Text #4
Language                         : Finnish

Text #5
Language                         : Swedish

Text #6
Language                         : Norwegian

Text #7
Language                         : Dutch

Text #8
Language                         : Czech

Text #9
Language                         : Czech

Text #10
Language                         : Polish

Text #11
Language                         : Turkish

Text #12
Language                         : Hungarian

Text #13
Language                         : Bulgarian

Menu
00:00:00.000                     : Chapter 1
00:07:51.880                     : Chapter 2

